<?xml version="1.0" encoding="utf-8"?>
<!-- Generator: Adobe Illustrator 16.0.3, SVG Export Plug-In . SVG Version: 6.00 Build 0)  -->
<!DOCTYPE svg PUBLIC "-//W3C//DTD SVG 1.1//EN" "http://www.w3.org/Graphics/SVG/1.1/DTD/svg11.dtd">
<svg version="1.1" id="Layer_1" xmlns="http://www.w3.org/2000/svg" xmlns:xlink="http://www.w3.org/1999/xlink" x="0px" y="0px"
	 width="32px" height="32px" viewBox="0 0 32 32" enable-background="new 0 0 32 32" xml:space="preserve">
<g>
	<g>
		<path fill="#4AAE48" d="M13.618,26.815c-1.477-0.158-2.72-0.778-3.731-1.857s-1.662-2.397-1.952-3.954L4.608,7.886
			c-1.813,2.533-3.01,5.456-3.65,8.484c-0.917,4.339-0.534,8.253,1.149,11.739c1.683,3.486,4.218,5.735,7.605,6.748l6.057-8.259
			C15.313,26.7,14.544,26.915,13.618,26.815z"/>
	</g>
	<g>
		<path fill="#EA3939" d="M7.128,9.291c1.605-1.098,3.218-1.353,4.921-1.169c0.227,0.024,12.492,1.344,12.492,1.344
			c-0.734-2.76-2.017-5.163-3.906-6.939c-1.89-1.774-4.141-2.803-6.752-3.084c-2.271-0.245-4.513,0.104-6.725,1.045
			C4.945,1.428,2.77,2.91,0.98,4.92l2.426,8.929C4.233,11.951,5.52,10.39,7.128,9.291z"/>
	</g>
	<g>
		<path fill="#FED14B" d="M31.88,7.332l-8.446-0.908c1.104,1.922,1.592,4.286,1.066,6.772c-0.392,1.854-1.184,3.503-2.38,4.945
			l-8.554,11.631c3.983,0.382,7.734-0.971,11.252-4.06c3.517-3.09,5.776-7.007,6.779-11.753C32.065,11.744,32.245,9.381,31.88,7.332
			z"/>
	</g>
	<g>
		<path fill="#188FD1" d="M15.375,9.49c3.011,0.324,4.836,3.501,4.076,7.096c-0.76,3.595-3.816,6.247-6.826,5.924
			c-3.01-0.324-4.835-3.501-4.076-7.096C9.309,11.818,12.365,9.167,15.375,9.49z"/>
	</g>
</g>
</svg>
